# xmcd
#
# Track frame offsets: 
#        150
#        24339
#        43507
#        63677
#        82674
#        102180
#        117276
#        133267
#        150337
#        170087
#        186266
#        208003
#        228960
#        251271
#        267582
#        284802
#        304977
#        323877
#        341277
#
# Disc length: 4777 seconds
#
# Revision: 0
# Processed by: cddbd v1.5.2PL0 Copyright (c) Steve Scherf et al.
# Submitted via: ExactAudioCopy v0.95a5
#
DISCID=0f12a713
DTITLE=林俊杰 - 她说（自选新歌+精选辑）
DYEAR=2010
DGENRE=Pop
TTITLE0=她说
TTITLE1=爱笑的眼睛
TTITLE2=只对你有感觉
TTITLE3=当你
TTITLE4=一眼万年
TTITLE5=保护色
TTITLE6=握不住的他
TTITLE7=心墙
TTITLE8=我很想爱他
TTITLE9=一生的爱
TTITLE10=记得
TTITLE11=完美新世界
TTITLE12=I AM
TTITLE13=真材实料的我
TTITLE14=一千年以后
TTITLE15=自由不变
TTITLE16=熟能生巧
TTITLE17=只对你说
TTITLE18=不死之身
EXTD=
EXTT0=
EXTT1=
EXTT2=
EXTT3=
EXTT4=
EXTT5=
EXTT6=
EXTT7=
EXTT8=
EXTT9=
EXTT10=
EXTT11=
EXTT12=
EXTT13=
EXTT14=
EXTT15=
EXTT16=
EXTT17=
EXTT18=
PLAYORDER=
